HIERARCHY
ROOT Hips
{
	OFFSET 0.0000 0.0000 0.0000
	CHANNELS 6 Xposition Yposition Zposition Zrotation Xrotation Yrotation
	JOINT Ab
	{
		OFFSET -0.0000 8.1305 -0.0000
		CHANNELS 3 Zrotation Xrotation Yrotation
		JOINT Chest
		{
			OFFSET -0.0000 26.2902 -0.0000
			CHANNELS 3 Zrotation Xrotation Yrotation
			JOINT Neck
			{
				OFFSET -0.0000 26.2902 0.0000
				CHANNELS 3 Zrotation Xrotation Yrotation
				JOINT Head
				{
					OFFSET -0.0000 10.8167 0.0000
					CHANNELS 3 Zrotation Xrotation Yrotation
					End Site
					{
						OFFSET -0.0000 16.7167 0.0000
					}
				}
			}
			JOINT LeftCollar
			{
				OFFSET -0.0000 26.2902 0.0000
				CHANNELS 3 Zrotation Xrotation Yrotation
				JOINT LeftShoulder
				{
					OFFSET 19.6667 -0.0000 0.0000
					CHANNELS 3 Zrotation Xrotation Yrotation
					JOINT LeftElbow
					{
						OFFSET 27.2190 0.0000 0.0000
						CHANNELS 3 Zrotation Xrotation Yrotation
						JOINT LeftWrist
						{
							OFFSET 30.7431 0.0000 0.0000
							CHANNELS 3 Zrotation Xrotation Yrotation
							End Site
							{
								OFFSET 0.0000 -14.7500 0.0000
							}
						}
					}
				}
			}
			JOINT RightCollar
			{
				OFFSET -0.0000 26.2902 0.0000
				CHANNELS 3 Zrotation Xrotation Yrotation
				JOINT RightShoulder
				{
					OFFSET -19.6667 0.0000 0.0000
					CHANNELS 3 Zrotation Xrotation Yrotation
					JOINT RightElbow
					{
						OFFSET -27.2190 0.0000 0.0000
						CHANNELS 3 Zrotation Xrotation Yrotation
						JOINT RightWrist
						{
							OFFSET -30.7431 0.0000 0.0000
							CHANNELS 3 Zrotation Xrotation Yrotation
							End Site
							{
								OFFSET -0.0000 -14.7500 0.0000
							}
						}
					}
				}
			}
		}
	}
	JOINT LeftHip
	{
		OFFSET 11.8000 0.0000 0.0000
		CHANNELS 3 Zrotation Xrotation Yrotation
		JOINT LeftKnee
		{
			OFFSET -0.0000 -39.7832 0.0000
			CHANNELS 3 Zrotation Xrotation Yrotation
			JOINT LeftAnkle
			{
				OFFSET -0.0000 -41.7317 0.0000
				CHANNELS 3 Zrotation Xrotation Yrotation
				End Site
				{
					OFFSET -0.0000 -4.9167 16.7167
				}
			}
		}
	}
	JOINT RightHip
	{
		OFFSET -11.8000 0.0000 0.0000
		CHANNELS 3 Zrotation Xrotation Yrotation
		JOINT RightKnee
		{
			OFFSET -0.0000 -39.7832 0.0000
			CHANNELS 3 Zrotation Xrotation Yrotation
			JOINT RightAnkle
			{
				OFFSET -0.0000 -41.7317 0.0000
				CHANNELS 3 Zrotation Xrotation Yrotation
				End Site
				{
					OFFSET -0.0000 -4.9167 16.7167
				}
			}
		}
	}
}
MOTION
Frames: 20
Frame Time: 0.010000
-18.9693 97.1119 175.0861 357.1618 357.0139 176.5549 357.0660 347.6160 359.9422 1.6004 8.3680 0.1650 3.0509 356.3918 2.0888 352.0612 2.5308 2.1659 337.9559 357.2398 14.0244 321.3343 57.5313 338.5484 6.2907 358.1693 327.1967 86.7777 359.8046 344.2042 27.1709 356.0152 343.6793 48.0822 45.4453 2.4378 342.0654 354.7965 32.2144 272.5362 355.0789 13.7291 355.6980 3.5568 358.8251 358.2839 5.7606 9.7344 353.5631 351.4316 11.5829 356.3237 5.7300 9.0371 6.2057 6.1512 11.4024 347.7447 345.5156 313.4325 
-18.9723 97.1102 175.0691 357.1593 356.9954 176.5379 357.0701 347.5997 359.9799 1.6169 8.3892 0.1457 2.9720 356.4068 2.1127 352.1308 2.5172 2.1929 337.9351 357.2384 14.0973 321.4008 57.5256 338.4694 6.2297 358.1769 327.2033 86.8131 359.8264 344.1794 27.1747 356.0370 343.7241 48.0200 45.4190 2.4366 342.1588 354.8150 32.2530 272.5001 355.0938 13.8359 355.6974 3.5489 358.8004 358.2653 5.7699 9.7461 353.5871 351.3959 11.5904 356.3148 5.7310 9.0959 6.2082 6.1256 11.3823 347.7209 345.5469 313.4292 
-18.9733 97.1094 175.0567 357.1629 356.9785 176.5354 357.0921 347.5995 359.9455 1.5732 8.3960 0.1630 3.0905 356.4047 2.0914 352.0223 2.5377 2.1709 337.9503 357.2428 14.0552 321.4357 57.5173 338.4561 6.2089 358.1809 327.2016 86.8022 359.8156 344.1529 27.2026 356.0317 343.6898 47.9815 45.3980 2.4680 342.1438 354.7991 32.2601 272.6574 355.1875 14.0514 355.7067 3.5218 358.7612 358.2479 5.8125 9.7417 353.6490 351.3380 11.6206 356.3193 5.7312 9.1059 6.2032 6.1081 11.3742 347.7195 345.5393 313.4312 
-18.9760 97.1086 175.0423 357.1600 356.9640 176.5313 357.0951 347.5995 359.9678 1.5790 8.3938 0.1392 3.0016 356.4318 2.1100 352.0904 2.5409 2.1927 337.9157 357.2363 14.0991 321.4955 57.4819 338.4241 6.1702 358.1956 327.2006 86.8094 359.8211 344.1469 27.2156 356.0481 343.7391 47.9400 45.3802 2.4500 342.1911 354.8037 32.2870 272.6436 355.1809 14.0929 355.7051 3.4998 358.7142 358.2341 5.8509 9.7670 353.6007 351.2852 11.6563 356.3135 5.7381 9.1225 6.2035 6.0857 11.3855 347.7259 345.5266 313.4068 
-18.9767 97.1070 175.0303 357.1607 356.9368 176.5246 357.0961 347.5932 359.9523 1.5665 8.3921 0.1538 3.0798 356.4535 2.1024 352.0441 2.5306 2.1823 337.9219 357.2476 14.0701 321.5187 57.4685 338.4114 6.1593 358.2090 327.2037 86.7491 359.8135 344.1093 27.2272 356.0337 343.7331 47.9231 45.3471 2.4476 342.1944 354.8087 32.3113 272.6727 355.1563 14.1698 355.7136 3.4528 358.6783 358.2195 5.9085 9.7318 353.6704 351.2173 11.6979 356.3135 5.7254 9.1507 6.2028 6.0702 11.3720 347.7551 345.4940 313.3983 
-18.9778 97.1040 175.0140 357.1650 356.9133 176.5128 357.0539 347.6246 359.9795 1.6437 8.3252 0.1788 3.0363 356.4872 2.1153 352.1349 2.5300 2.1956 337.8987 357.2278 14.0757 321.4910 57.4897 338.4438 6.1828 358.1757 327.2147 86.7107 359.8046 344.1102 27.1960 356.0447 343.7081 47.9093 45.3594 2.4180 342.2223 354.8193 32.3416 272.5998 355.1225 14.1161 355.7251 3.4139 358.6421 358.1960 5.9726 9.7084 353.5465 351.0830 11.7740 356.3148 5.7210 9.1846 6.2029 6.0472 11.3608 347.7633 345.4752 313.3821 
-18.9796 97.1008 174.9994 357.1697 356.8908 176.5059 356.9914 347.7057 0.0210 1.7449 8.1801 0.2102 2.9531 356.5212 2.1076 352.3047 2.5492 2.1884 337.8478 357.2292 14.0380 321.4158 57.5464 338.5759 6.1683 358.1860 327.2071 86.6344 359.7949 344.0606 27.1670 356.0282 343.6236 47.9128 45.3835 2.3915 342.2172 354.8092 32.3690 272.5412 355.0846 14.0116 355.7367 3.3707 358.5889 358.1687 6.0461 9.6935 353.5056 350.9742 11.8101 356.3187 5.7139 9.2228 6.2041 6.0375 11.3388 347.7687 345.4478 313.3693 
-18.9822 97.0991 174.9780 357.1675 356.8773 176.4930 356.9909 347.7070 0.0203 1.7376 8.1975 0.2137 2.9823 356.4784 2.0809 352.2656 2.5973 2.1641 337.8647 357.2374 14.0093 321.4387 57.5636 338.5377 6.2050 358.1765 327.1981 86.5756 359.7944 344.0476 27.1666 356.0014 343.5965 47.9125 45.3873 2.3808 342.2342 354.8008 32.4035 272.4092 355.1502 14.1972 355.7389 3.3470 358.5329 358.1449 6.1057 9.6906 353.5295 350.8994 11.8702 356.3139 5.7002 9.1669 6.1981 6.0736 11.4116 347.7788 345.3857 313.3571 
-18.9860 97.0974 174.9560 357.1618 356.8580 176.4753 356.9937 347.7046 0.0255 1.7331 8.2063 0.2162 2.9872 356.4619 2.0824 352.2491 2.6266 2.1674 337.8677 357.2347 14.0154 321.4125 57.5401 338.5572 6.2138 358.1592 327.1848 86.5836 359.7943 344.0234 27.1739 356.0176 343.6089 47.9018 45.3501 2.3529 342.3150 354.8209 32.4564 272.1284 355.2592 14.5711 355.7343 3.3033 358.4718 358.1258 6.1861 9.7010 353.5451 350.8253 11.9332 356.3042 5.6654 9.0217 6.1852 6.1620 11.5926 347.7802 345.2978 313.3342 
-18.9903 97.0963 174.9332 357.1557 356.8351 176.4594 357.0070 347.7049 0.0238 1.7088 8.1987 0.2171 2.9913 356.4857 2.0830 352.2562 2.6155 2.1672 337.8693 357.2344 14.0144 321.3951 57.5045 338.5877 6.1922 358.1657 327.1732 86.5409 359.7905 343.9812 27.1993 356.0107 343.6171 47.8808 45.3371 2.3365 342.3089 354.8189 32.5174 272.1627 355.2578 14.5913 355.7289 3.2547 358.4145 358.1093 6.2805 9.6989 353.4992 350.7281 12.0100 356.2835 5.6373 9.0908 6.2095 6.1988 11.5679 347.7820 345.1965 313.2801 
-18.9943 97.0938 174.9022 357.1537 356.8302 176.4340 357.0108 347.7076 0.0303 1.7105 8.2143 0.2236 3.0147 356.5055 2.0938 352.2135 2.6046 2.1788 337.8632 357.2400 14.0131 321.3651 57.4519 338.6248 6.1691 358.1777 327.1545 86.5284 359.7801 343.9406 27.2016 355.9961 343.6449 47.8863 45.3213 2.2908 342.3155 354.7965 32.5992 272.1788 355.2830 14.6140 355.7214 3.2225 358.3434 358.0906 6.3784 9.6884 353.4490 350.6074 12.1063 356.2657 5.6400 9.1660 6.2430 6.2360 11.5297 347.7377 345.1087 313.2394 
-18.9972 97.0911 174.8743 357.1455 356.8130 176.4037 356.9963 347.7053 0.0363 1.7298 8.2326 0.2350 3.0069 356.4966 2.0983 352.2047 2.6019 2.1824 337.8564 357.2343 14.0208 321.3596 57.4203 338.6181 6.1745 358.1894 327.1421 86.5539 359.7597 343.9762 27.2160 356.0198 343.6408 47.8287 45.2594 2.3075 342.4067 354.8163 32.7121 272.1188 355.3077 14.6625 355.7108 3.1921 358.1428 358.0644 6.4709 9.8074 353.3990 350.4717 12.2076 356.2519 5.5652 8.9835 6.2437 6.4106 11.7535 347.7706 344.8997 313.1912 
-19.0035 97.0889 174.8400 357.1288 356.8057 176.3671 356.9779 347.7044 0.0487 1.7509 8.2651 0.2426 2.9746 356.4794 2.1052 352.2186 2.5989 2.1898 337.8504 357.2399 14.0356 321.3671 57.3853 338.5984 6.1408 358.2023 327.1350 86.6043 359.7476 344.0100 27.2160 356.0146 343.6524 47.7830 45.2258 2.3296 342.3737 354.7934 32.8373 272.4850 355.2000 14.2226 355.6997 3.1734 357.8544 358.0114 6.5332 10.0175 353.4816 350.3816 12.3312 356.2013 5.5356 9.0440 6.2967 6.5128 11.7845 347.7717 344.6651 313.1235 
-19.0066 97.0860 174.8101 357.1149 356.7797 176.3381 356.9722 347.7095 0.0518 1.7471 8.2571 0.2421 2.9848 356.4788 2.1165 352.2093 2.6040 2.2024 337.8591 357.2251 14.0464 321.3375 57.3848 338.6257 6.1769 358.1634 327.1261 86.5002 359.7402 343.9755 27.3190 356.0188 343.7578 47.6874 44.9561 2.1923 342.5583 354.8342 33.0744 272.4537 355.2298 14.3118 355.6903 3.1067 357.7534 357.9744 6.6708 10.0163 353.3398 350.2715 12.4252 356.1676 5.4633 9.0725 6.3347 6.6896 11.8502 347.7419 344.4204 313.0654 
-19.0111 97.0833 174.7700 357.1008 356.7666 176.3025 356.9857 347.7121 0.0552 1.7182 8.2671 0.2405 2.9867 356.4868 2.1399 352.2182 2.5948 2.2247 337.8680 357.2396 14.0532 321.2629 57.3192 338.7012 6.1310 358.1797 327.0913 86.3370 359.7436 343.8680 27.3475 356.0141 343.7762 47.6620 44.9044 2.1745 342.5878 354.7957 33.2074 272.4866 355.2720 14.3815 355.6812 3.0437 357.6319 357.9386 6.8312 10.0343 352.4615 350.0492 12.5779 356.1239 5.3982 9.1236 6.3884 6.8441 11.8676 347.8085 344.0309 312.9721 
-19.0174 97.0798 174.7414 357.0844 356.7324 176.2781 356.9714 347.7160 0.0564 1.7293 8.2757 0.2501 2.9857 356.4290 2.1481 352.1977 2.6383 2.2341 337.8678 357.2155 14.0919 321.3674 57.3643 338.5645 6.1723 358.1786 327.1134 86.2818 359.7237 343.9139 27.3631 356.0242 343.7763 47.6211 44.8581 2.1853 342.6432 354.7866 33.3561 272.5278 355.3216 14.4795 355.6693 2.9414 357.5305 357.9029 7.0205 10.0416 352.4502 349.8453 12.6444 356.0775 5.3011 9.1664 6.4569 7.0273 11.8801 347.8370 343.6628 312.8756 
-19.0231 97.0724 174.7071 357.0729 356.7035 176.2493 356.9694 347.7132 0.0613 1.7347 8.3068 0.2469 2.9728 356.3542 2.1608 352.1741 2.6807 2.2499 337.8004 357.2229 14.1217 321.5974 57.2360 338.4620 5.9398 358.2836 327.0070 86.2838 359.7720 343.8046 27.3650 356.0221 343.7787 47.6000 44.8124 2.1901 342.6556 354.7748 33.5352 272.5787 355.4060 14.5195 355.6599 2.8348 357.4315 357.8676 7.2224 10.0259 352.7611 349.7170 12.6620 356.0359 5.2222 9.2164 6.5260 7.1879 11.8861 347.7900 343.4057 312.8185 
-19.0304 97.0658 174.6676 357.0596 356.6753 176.2296 356.9798 347.7139 0.0470 1.7045 8.3293 0.2417 3.0050 356.3082 2.1765 352.1476 2.6809 2.2636 337.8242 357.2080 14.1425 321.6301 57.2466 338.4025 5.9931 358.2437 327.0231 86.1631 359.7764 343.7650 27.3730 356.0226 343.7914 47.5907 44.7424 2.1701 342.7365 354.7711 33.7639 272.4011 355.4677 14.8355 355.6448 2.7351 357.3410 357.8456 7.4415 9.9885 352.6084 349.4679 12.7307 355.9908 5.1371 9.2279 6.5959 7.3606 12.1132 347.6601 343.2071 312.5939 
-19.0371 97.0555 174.6304 357.0570 356.6377 176.2068 357.0094 347.7177 0.0413 1.6747 8.3529 0.2333 3.0423 356.2177 2.2011 352.0853 2.7320 2.2888 337.8454 357.2126 14.1811 321.6176 57.2245 338.3824 5.9602 358.2424 326.9620 86.7796 359.8346 343.9873 27.3962 356.0291 343.8059 47.5473 44.7022 2.1643 342.8392 354.7786 34.0125 272.1713 355.4674 15.2411 355.6506 2.6239 357.2323 357.8050 7.6492 9.9607 351.6675 349.2257 12.8963 355.9563 5.0530 9.2634 6.6654 7.5325 12.3929 347.5813 342.9569 312.2935 
-19.0428 97.0434 174.5893 357.0566 356.5968 176.1832 357.0291 347.7183 0.0406 1.6656 8.3789 0.2287 3.0526 356.1303 2.2231 352.0420 2.7765 2.3123 337.8492 357.2105 14.1940 321.6149 57.2068 338.3748 5.9537 358.2305 326.9440 86.8065 359.8372 344.0196 27.4081 356.0304 343.8089 47.4707 44.6770 2.1890 342.8970 354.7519 34.2952 272.2823 355.4600 15.1188 355.6545 2.5204 357.1672 357.7682 7.8489 9.8695 351.1156 348.9773 12.9835 355.9395 4.9811 9.2956 6.7152 7.6719 12.4173 347.5644 342.6892 312.2445 
